<?xml version="1.0" encoding="UTF-8" standalone="no"?>
<!-- Created with Inkscape (http://www.inkscape.org/) -->

<svg
   width="50"
   height="50"
   viewBox="0 0 13.229165 13.229165"
   version="1.1"
   id="svg1438"
   sodipodi:docname="dev.svg"
   inkscape:version="1.2 (dc2aedaf03, 2022-05-15)"
   xmlns:inkscape="http://www.inkscape.org/namespaces/inkscape"
   xmlns:sodipodi="http://sodipodi.sourceforge.net/DTD/sodipodi-0.dtd"
   xmlns="http://www.w3.org/2000/svg"
   xmlns:svg="http://www.w3.org/2000/svg">
  <sodipodi:namedview
     id="namedview1440"
     pagecolor="#505050"
     bordercolor="#eeeeee"
     borderopacity="1"
     inkscape:showpageshadow="0"
     inkscape:pageopacity="0"
     inkscape:pagecheckerboard="0"
     inkscape:deskcolor="#505050"
     inkscape:document-units="px"
     showgrid="false"
     inkscape:zoom="18.88"
     inkscape:cx="16.022246"
     inkscape:cy="46.398305"
     inkscape:window-width="1920"
     inkscape:window-height="1017"
     inkscape:window-x="-8"
     inkscape:window-y="-8"
     inkscape:window-maximized="1"
     inkscape:current-layer="layer1" />
  <defs
     id="defs1435" />
  <g
     inkscape:label="Layer 1"
     inkscape:groupmode="layer"
     id="layer1">
    <g
       style="fill:#ea7511;fill-opacity:1"
       id="g9485"
       transform="matrix(-0.80147286,0,0,0.80147286,12.625629,0.4055994)">
      <path
         d="M 15,0.5 A 0.5,0.5 0 0 0 14.276,0.053 l -8,4 A 0.5,0.5 0 0 0 6,4.5 V 7.64 L 0.342,9.526 A 0.5,0.5 0 0 0 0,10 v 5.5 A 0.5,0.5 0 0 0 0.5,16 h 9 A 0.5,0.5 0 0 0 10,15.5 V 14 h 1 v 1.5 a 0.5,0.5 0 0 0 0.5,0.5 h 3 A 0.5,0.5 0 0 0 15,15.5 Z M 2,11 h 1 v 1 H 2 Z m 2,0 h 1 v 1 H 4 Z m -1,2 v 1 H 2 v -1 z m 1,0 h 1 v 1 H 4 Z M 13,3 V 4 H 12 V 3 Z M 8,5 H 9 V 6 H 8 Z M 9,7 V 8 H 8 V 7 Z M 8,9 h 1 v 1 H 8 Z m 2,0 h 1 v 1 h -1 z m -1,2 v 1 H 8 v -1 z m 1,0 h 1 v 1 h -1 z m 3,-2 v 1 H 12 V 9 Z m -1,2 h 1 v 1 H 12 Z M 10,7 h 1 v 1 h -1 z m 3,0 V 8 H 12 V 7 Z M 11,5 V 6 H 10 V 5 Z m 1,0 h 1 v 1 h -1 z"
         id="path9483"
         style="fill:#ea7511;fill-opacity:1" />
    </g>
    <g
       style="fill:#ffffff"
       id="g9489"
       transform="matrix(-0.80147286,0,0,0.80147286,12.625629,-1.342408e-5)">
      <path
         d="M 15,0.5 A 0.5,0.5 0 0 0 14.276,0.053 l -8,4 A 0.5,0.5 0 0 0 6,4.5 V 7.64 L 0.342,9.526 A 0.5,0.5 0 0 0 0,10 v 5.5 A 0.5,0.5 0 0 0 0.5,16 h 9 A 0.5,0.5 0 0 0 10,15.5 V 14 h 1 v 1.5 a 0.5,0.5 0 0 0 0.5,0.5 h 3 A 0.5,0.5 0 0 0 15,15.5 Z M 2,11 h 1 v 1 H 2 Z m 2,0 h 1 v 1 H 4 Z m -1,2 v 1 H 2 v -1 z m 1,0 h 1 v 1 H 4 Z M 13,3 V 4 H 12 V 3 Z M 8,5 H 9 V 6 H 8 Z M 9,7 V 8 H 8 V 7 Z M 8,9 h 1 v 1 H 8 Z m 2,0 h 1 v 1 h -1 z m -1,2 v 1 H 8 v -1 z m 1,0 h 1 v 1 h -1 z m 3,-2 v 1 H 12 V 9 Z m -1,2 h 1 v 1 H 12 Z M 10,7 h 1 v 1 h -1 z m 3,0 V 8 H 12 V 7 Z M 11,5 V 6 H 10 V 5 Z m 1,0 h 1 v 1 h -1 z"
         id="path9487"
         style="fill:#ffffff" />
    </g>
  </g>
</svg>
