<?xml version="1.0" encoding="UTF-8" standalone="no"?>
<!-- Created with Inkscape (http://www.inkscape.org/) -->

<svg
   width="50"
   height="50"
   viewBox="0 0 13.229165 13.229165"
   version="1.1"
   id="svg1438"
   sodipodi:docname="genre.svg"
   inkscape:version="1.2 (dc2aedaf03, 2022-05-15)"
   xmlns:inkscape="http://www.inkscape.org/namespaces/inkscape"
   xmlns:sodipodi="http://sodipodi.sourceforge.net/DTD/sodipodi-0.dtd"
   xmlns="http://www.w3.org/2000/svg"
   xmlns:svg="http://www.w3.org/2000/svg">
  <sodipodi:namedview
     id="namedview1440"
     pagecolor="#505050"
     bordercolor="#eeeeee"
     borderopacity="1"
     inkscape:showpageshadow="0"
     inkscape:pageopacity="0"
     inkscape:pagecheckerboard="0"
     inkscape:deskcolor="#505050"
     inkscape:document-units="px"
     showgrid="false"
     inkscape:zoom="13.350176"
     inkscape:cx="18.389271"
     inkscape:cy="39.55004"
     inkscape:window-width="1920"
     inkscape:window-height="1017"
     inkscape:window-x="-8"
     inkscape:window-y="-8"
     inkscape:window-maximized="1"
     inkscape:current-layer="layer1" />
  <defs
     id="defs1435" />
  <g
     inkscape:label="Layer 1"
     inkscape:groupmode="layer"
     id="layer1">
    <g
       style="fill:#6d4bec;fill-opacity:1"
       id="g9518"
       transform="matrix(0.78745231,0,0,0.78745231,0.31496681,0.62992541)">
      <path
         d="M 3,0 A 3,3 0 0 0 0,3 v 10 a 3,3 0 0 0 3,3 h 10 a 3,3 0 0 0 3,-3 V 3 A 3,3 0 0 0 13,0 Z m 1,5.5 a 1.5,1.5 0 1 1 0,-3 1.5,1.5 0 0 1 0,3 z m 8,0 a 1.5,1.5 0 1 1 0,-3 1.5,1.5 0 0 1 0,3 z m 1.5,6.5 a 1.5,1.5 0 1 1 -3,0 1.5,1.5 0 0 1 3,0 z M 12,9.5 a 1.5,1.5 0 1 1 0,-3 1.5,1.5 0 0 1 0,3 z M 5.5,12 a 1.5,1.5 0 1 1 -3,0 1.5,1.5 0 0 1 3,0 z M 4,9.5 a 1.5,1.5 0 1 1 0,-3 1.5,1.5 0 0 1 0,3 z"
         id="path9516"
         style="fill:#6d4bec;fill-opacity:1" />
    </g>
    <g
       style="fill:#ffffff"
       id="g9522"
       transform="matrix(0.78745231,0,0,0.78745231,0.31496681,-2.555756e-6)">
      <path
         d="M 3,0 A 3,3 0 0 0 0,3 v 10 a 3,3 0 0 0 3,3 h 10 a 3,3 0 0 0 3,-3 V 3 A 3,3 0 0 0 13,0 Z m 1,5.5 a 1.5,1.5 0 1 1 0,-3 1.5,1.5 0 0 1 0,3 z m 8,0 a 1.5,1.5 0 1 1 0,-3 1.5,1.5 0 0 1 0,3 z m 1.5,6.5 a 1.5,1.5 0 1 1 -3,0 1.5,1.5 0 0 1 3,0 z M 12,9.5 a 1.5,1.5 0 1 1 0,-3 1.5,1.5 0 0 1 0,3 z M 5.5,12 a 1.5,1.5 0 1 1 -3,0 1.5,1.5 0 0 1 3,0 z M 4,9.5 a 1.5,1.5 0 1 1 0,-3 1.5,1.5 0 0 1 0,3 z"
         id="path9520"
         style="fill:#ffffff" />
    </g>
  </g>
</svg>
