<?xml version="1.0" encoding="UTF-8" standalone="no"?>
<svg
   version="1.1"
   id="svg2"
   viewBox="0 0 187.49994 107.47965"
   height="114.645"
   width="200"
   inkscape:version="1.2 (dc2aedaf03, 2022-05-15)"
   sodipodi:docname="metacritic_logo.svg"
   xmlns:inkscape="http://www.inkscape.org/namespaces/inkscape"
   xmlns:sodipodi="http://sodipodi.sourceforge.net/DTD/sodipodi-0.dtd"
   xmlns="http://www.w3.org/2000/svg"
   xmlns:svg="http://www.w3.org/2000/svg"
   xmlns:rdf="http://www.w3.org/1999/02/22-rdf-syntax-ns#"
   xmlns:cc="http://creativecommons.org/ns#"
   xmlns:dc="http://purl.org/dc/elements/1.1/">
  <sodipodi:namedview
     pagecolor="#ffffff"
     bordercolor="#666666"
     borderopacity="1"
     objecttolerance="10"
     gridtolerance="10"
     guidetolerance="10"
     inkscape:pageopacity="0"
     inkscape:pageshadow="2"
     inkscape:window-width="1920"
     inkscape:window-height="1017"
     id="namedview16"
     showgrid="false"
     inkscape:zoom="1.9934526"
     inkscape:cx="133.43683"
     inkscape:cy="122.4007"
     inkscape:window-x="-8"
     inkscape:window-y="-8"
     inkscape:window-maximized="1"
     inkscape:current-layer="svg2"
     inkscape:showpageshadow="0"
     inkscape:pagecheckerboard="0"
     inkscape:deskcolor="#d1d1d1"
     inkscape:document-units="px" />
  <defs
     id="defs4" />
  <metadata
     id="metadata7">
    <rdf:RDF>
      <cc:Work
         rdf:about="">
        <dc:format>image/svg+xml</dc:format>
        <dc:type
           rdf:resource="http://purl.org/dc/dcmitype/StillImage" />
      </cc:Work>
    </rdf:RDF>
  </metadata>
  <g
     id="g254742"
     transform="matrix(2.8880225,0,0,2.8880225,-531.82227,-259.21527)">
    <g
       id="g254720">
      <g
         id="g240270"
         transform="matrix(3.1662656,0,0,3.1662656,202.93454,-398.14058)">
        <g
           id="g71076"
           transform="translate(-1.0158821,3.3333176)">
          <g
             transform="matrix(0.04351176,0,0,0.04351176,1.6624124,112.22518)"
             id="g71066">
            <path
               d="M 154.85638,965.03461 A 71.771339,71.771339 0 0 1 83.106027,1036.8059 71.771339,71.771339 0 0 1 11.313718,965.07657 71.771339,71.771339 0 0 1 83.022097,893.2633 71.771339,71.771339 0 0 1 154.85634,964.95068"
               id="path71064"
               style="fill:#000000;fill-opacity:1" />
          </g>
          <g
             transform="matrix(0.04351176,0,0,0.04351176,1.6624124,112.22518)"
             style="display:inline"
             id="g71070">
            <path
               id="path71068"
               d="m 84.325341,885.5858 a 82.074898,82.074898 0 0 0 -82.001954,82.12305 82.074898,82.074898 0 0 0 82.09961,82.02735 82.074898,82.074898 0 0 0 82.050773,-82.07618 v -0.0957 A 82.074898,82.074898 0 0 0 84.325341,885.5858 Z m -0.375,17.54101 a 64.285713,64.285713 0 0 1 64.343749,64.21094 v 0.0742 A 64.285713,64.285713 0 0 1 84.026513,1031.6971 64.285713,64.285713 0 0 1 19.721825,967.44908 64.285713,64.285713 0 0 1 83.950341,903.12681 Z"
               style="fill:#ffce35;fill-opacity:1" />
          </g>
          <g
             transform="matrix(0.03076746,-0.03076746,0.03076746,0.03076746,1.662413,112.22518)"
             style="font-style:normal;font-weight:normal;font-size:133.72px;line-height:125%;font-family:sans-serif;letter-spacing:0px;word-spacing:0px;fill:#ffffff;fill-opacity:1;stroke:none;stroke-width:1px;stroke-linecap:butt;stroke-linejoin:miter;stroke-opacity:1"
             id="g71074">
            <path
               d="m -670.20077,773.35864 h 19.79052 v -38.11011 c 0,-1.60463 0.13372,-3.47671 0.80232,-5.08134 1.20347,-3.343 4.27903,-7.35459 9.49409,-7.35459 6.41855,0 9.36038,5.61623 9.36038,13.90685 v 36.63919 h 19.79051 v -38.24383 c 0,-1.60463 0.26744,-3.74415 0.80232,-5.21506 1.3372,-3.87787 4.68019,-7.08715 9.36038,-7.08715 6.55226,0 9.62782,5.48251 9.62782,14.97661 v 35.56943 h 19.79051 v -38.51127 c 0,-19.52307 -9.4941,-28.34857 -22.06375,-28.34857 -4.81391,0 -8.8255,1.06976 -12.43593,3.20927 -3.07555,1.87208 -6.01738,4.41275 -8.42434,7.88947 h -0.26744 c -2.80811,-6.81971 -9.4941,-11.09874 -17.91844,-11.09874 -11.23245,0 -16.98239,6.15111 -19.79051,10.29642 h -0.40116 l -0.93604,-8.8255 h -17.11611 c 0.26744,5.74994 0.53487,12.70337 0.53487,20.86027 z"
               style="font-style:normal;font-variant:normal;font-weight:bold;font-stretch:normal;font-family:'Myriad Hebrew';-inkscape-font-specification:'Myriad Hebrew Bold';fill:#ffffff"
               id="path71072" />
          </g>
        </g>
      </g>
    </g>
    <g
       style="font-style:normal;font-weight:normal;font-size:127.306px;line-height:125%;font-family:sans-serif;letter-spacing:0px;word-spacing:0px;fill:#ffffff;fill-opacity:1;stroke:none;stroke-width:1px;stroke-linecap:butt;stroke-linejoin:miter;stroke-opacity:1"
       id="g71098"
       transform="matrix(0.12237679,0,0,0.12237679,160.5496,4.3917119)">
      <path
         d="m 193.3395,1000.2548 h 18.84134 v -36.2823 c 0,-1.52767 0.12731,-3.30996 0.76384,-4.83764 1.14576,-3.18266 4.0738,-7.00185 9.03875,-7.00185 6.11071,0 8.91145,5.34687 8.91145,13.23986 v 34.88193 h 18.84134 v -36.4096 c 0,-1.52768 0.25462,-3.56458 0.76384,-4.96495 1.27306,-3.69189 4.45572,-6.74724 8.91145,-6.74724 6.23801,0 9.16606,5.21956 9.16606,14.25831 v 33.86348 h 18.84134 v -36.66422 c 0,-18.58673 -9.03875,-26.98895 -21.00555,-26.98895 -4.58303,0 -8.40222,1.01845 -11.83949,3.05535 -2.92805,1.78229 -5.72879,4.20111 -8.02031,7.51108 h -0.25461 c -2.67343,-6.49262 -9.03875,-10.56643 -17.05905,-10.56643 -10.69374,0 -16.16791,5.85609 -18.84135,9.80259 h -0.38192 l -0.89114,-8.40222 h -16.29522 c 0.25461,5.47418 0.50923,12.09411 0.50923,19.8598 z"
         style="font-style:normal;font-variant:normal;font-weight:bold;font-stretch:normal;font-family:'Myriad Hebrew';-inkscape-font-specification:'Myriad Hebrew Bold';letter-spacing:-3.28276px;fill:#ffffff"
         id="path71078" />
      <path
         d="m 354.45702,975.30277 c 0.25461,-1.40037 0.63653,-4.32842 0.63653,-7.63838 0,-15.40407 -7.63839,-31.06276 -27.75279,-31.06276 -21.64209,0 -31.44468,17.44098 -31.44468,33.22697 0,19.47787 12.09411,31.8266 33.22697,31.8266 8.40222,0 16.16791,-1.4004 22.53322,-3.94651 l -2.54612,-13.11255 c -5.21956,1.65498 -10.56643,2.54612 -17.18636,2.54612 -9.03876,0 -16.93175,-3.81919 -17.56828,-11.83949 z M 314.2282,962.06291 c 0.50922,-5.21956 3.81919,-12.60333 11.9668,-12.60333 8.91145,0 10.94835,7.89299 10.94835,12.60333 z"
         style="font-style:normal;font-variant:normal;font-weight:bold;font-stretch:normal;font-family:'Myriad Hebrew';-inkscape-font-specification:'Myriad Hebrew Bold';letter-spacing:-3.28276px;fill:#ffffff"
         id="path71080" />
      <path
         d="M 365.98556,924.50752 V 938.002 h -8.27492 v 14.25832 h 8.27492 v 25.46127 c 0,8.78414 1.78229,14.76754 5.34686,18.45943 3.05536,3.18266 8.27492,5.47418 14.51293,5.47418 5.47418,0 10.05721,-0.7638 12.60333,-1.7823 l -0.1273,-14.64023 c -1.40037,0.25461 -3.30997,0.50922 -5.72879,0.50922 -5.85609,0 -7.63838,-3.43727 -7.63838,-10.94834 V 952.26032 H 398.8306 V 938.002 h -13.87639 v -17.82289 z"
         style="font-style:normal;font-variant:normal;font-weight:bold;font-stretch:normal;font-family:'Myriad Hebrew';-inkscape-font-specification:'Myriad Hebrew Bold';letter-spacing:-3.28276px;fill:#ffffff"
         id="path71082" />
      <path
         d="m 458.71568,963.46328 c 0,-14.64024 -6.61993,-26.86165 -27.37087,-26.86165 -11.33027,0 -19.8598,3.05535 -24.18821,5.47418 l 3.56457,12.47602 c 4.07381,-2.54613 10.82105,-4.71034 17.18637,-4.71034 9.54797,0 11.33026,4.71034 11.33026,8.02031 v 0.89114 c -22.024,-0.1273 -36.53693,7.63838 -36.53693,23.80629 0,9.9299 7.51108,19.09597 20.11441,19.09597 7.38377,0 13.74909,-2.67344 17.82289,-7.63839 h 0.38192 l 1.14576,6.23799 h 17.44097 c -0.63653,-3.43725 -0.89114,-9.16604 -0.89114,-15.14944 z m -18.84134,14.13101 c 0,1.14575 -0.12731,2.29151 -0.38192,3.30996 -1.27307,3.9465 -5.21956,7.12916 -10.05721,7.12916 -4.32841,0 -7.63838,-2.41882 -7.63838,-7.38377 0,-7.51108 7.893,-9.9299 18.07751,-9.80259 z"
         style="font-style:normal;font-variant:normal;font-weight:bold;font-stretch:normal;font-family:'Myriad Hebrew';-inkscape-font-specification:'Myriad Hebrew Bold';letter-spacing:-3.28276px;fill:#ffffff"
         id="path71084" />
      <path
         d="m 515.30473,984.34152 c -2.92804,1.27307 -6.49262,2.03691 -11.07565,2.03691 -9.42068,0 -17.05906,-5.9834 -17.05906,-17.44098 -0.1273,-10.18451 6.49263,-17.44097 16.67714,-17.44097 5.09225,0 8.52953,0.89114 10.82104,1.90959 l 3.05535,-14.38562 c -4.0738,-1.52767 -9.67528,-2.41882 -14.76754,-2.41882 -23.16976,0 -35.64578,14.89485 -35.64578,33.09966 0,19.60518 12.85794,31.95391 32.97235,31.95391 7.38377,0 13.87639,-1.4004 17.31367,-2.92805 z"
         style="font-style:normal;font-variant:normal;font-weight:bold;font-stretch:normal;font-family:'Myriad Hebrew';-inkscape-font-specification:'Myriad Hebrew Bold';letter-spacing:-3.28276px;fill:#ffffff"
         id="path71086" />
      <path
         d="m 525.0291,1000.2548 h 19.35057 v -31.57196 c 0,-1.52768 0.12731,-3.05535 0.38192,-4.32842 1.27306,-5.9834 6.11071,-9.80259 13.23986,-9.80259 2.16421,0 3.8192,0.25461 5.21957,0.63653 v -18.33212 c -1.40037,-0.25461 -2.29152,-0.25461 -4.07381,-0.25461 -5.9834,0 -13.62178,3.81919 -16.80444,12.85795 h -0.50923 L 541.19701,938.002 h -16.67713 c 0.25461,5.34687 0.50922,11.33027 0.50922,20.49633 z"
         style="font-style:normal;font-variant:normal;font-weight:bold;font-stretch:normal;font-family:'Myriad Hebrew';-inkscape-font-specification:'Myriad Hebrew Bold';letter-spacing:-3.28276px;fill:#ffffff"
         id="path71088" />
      <path
         d="M 589.33408,1000.2548 V 938.002 h -19.35057 v 62.2528 z m -9.67529,-89.36906 c -6.23801,0 -10.31181,4.20111 -10.18451,9.80259 -0.1273,5.34687 3.9465,9.67529 10.05721,9.67529 6.36532,0 10.43912,-4.32842 10.43912,-9.67529 -0.12731,-5.60148 -4.0738,-9.80259 -10.31182,-9.80259 z"
         style="font-style:normal;font-variant:normal;font-weight:bold;font-stretch:normal;font-family:'Myriad Hebrew';-inkscape-font-specification:'Myriad Hebrew Bold';letter-spacing:-3.28276px;fill:#ffffff"
         id="path71090" />
      <path
         d="M 604.18453,924.50752 V 938.002 h -8.27491 v 14.25832 h 8.27491 v 25.46127 c 0,8.78414 1.78229,14.76754 5.34687,18.45943 3.05535,3.18266 8.27491,5.47418 14.51293,5.47418 5.47417,0 10.0572,-0.7638 12.60333,-1.7823 l -0.12731,-14.64023 c -1.40037,0.25461 -3.30996,0.50922 -5.72879,0.50922 -5.85609,0 -7.63838,-3.43727 -7.63838,-10.94834 v -22.53323 h 13.8764 V 938.002 h -13.8764 v -17.82289 z"
         style="font-style:normal;font-variant:normal;font-weight:bold;font-stretch:normal;font-family:'Myriad Hebrew';-inkscape-font-specification:'Myriad Hebrew Bold';letter-spacing:-3.28276px;fill:#ffffff"
         id="path71092" />
      <path
         d="M 664.32422,1000.2548 V 938.002 h -19.35057 v 62.2528 z m -9.67528,-89.36906 c -6.23802,0 -10.31182,4.20111 -10.18451,9.80259 -0.12731,5.34687 3.94649,9.67529 10.0572,9.67529 6.36532,0 10.43912,-4.32842 10.43912,-9.67529 -0.1273,-5.60148 -4.0738,-9.80259 -10.31181,-9.80259 z"
         style="font-style:normal;font-variant:normal;font-weight:bold;font-stretch:normal;font-family:'Myriad Hebrew';-inkscape-font-specification:'Myriad Hebrew Bold';letter-spacing:-3.28276px;fill:#ffffff"
         id="path71094" />
      <path
         d="m 720.93114,984.34152 c -2.92805,1.27307 -6.49263,2.03691 -11.07566,2.03691 -9.42067,0 -17.05905,-5.9834 -17.05905,-17.44098 -0.12731,-10.18451 6.49262,-17.44097 16.67713,-17.44097 5.09226,0 8.52953,0.89114 10.82104,1.90959 l 3.05536,-14.38562 c -4.07381,-1.52767 -9.67529,-2.41882 -14.76754,-2.41882 -23.16976,0 -35.64579,14.89485 -35.64579,33.09966 0,19.60518 12.85794,31.95391 32.97235,31.95391 7.38377,0 13.8764,-1.4004 17.31367,-2.92805 z"
         style="font-style:normal;font-variant:normal;font-weight:bold;font-stretch:normal;font-family:'Myriad Hebrew';-inkscape-font-specification:'Myriad Hebrew Bold';letter-spacing:-3.28276px;fill:#ffffff"
         id="path71096" />
    </g>
  </g>
</svg>
