<?xml version="1.0" encoding="UTF-8" standalone="no"?>
<!-- Created with Inkscape (http://www.inkscape.org/) -->

<svg
   width="50"
   height="50"
   viewBox="0 0 13.229165 13.229165"
   version="1.1"
   id="svg1438"
   sodipodi:docname="platform.svg"
   inkscape:version="1.2 (dc2aedaf03, 2022-05-15)"
   xmlns:inkscape="http://www.inkscape.org/namespaces/inkscape"
   xmlns:sodipodi="http://sodipodi.sourceforge.net/DTD/sodipodi-0.dtd"
   xmlns="http://www.w3.org/2000/svg"
   xmlns:svg="http://www.w3.org/2000/svg">
  <sodipodi:namedview
     id="namedview1440"
     pagecolor="#505050"
     bordercolor="#eeeeee"
     borderopacity="1"
     inkscape:showpageshadow="0"
     inkscape:pageopacity="0"
     inkscape:pagecheckerboard="0"
     inkscape:deskcolor="#505050"
     inkscape:document-units="px"
     showgrid="false"
     inkscape:zoom="6.675088"
     inkscape:cx="-2.172256"
     inkscape:cy="22.022182"
     inkscape:window-width="1920"
     inkscape:window-height="1017"
     inkscape:window-x="-8"
     inkscape:window-y="-8"
     inkscape:window-maximized="1"
     inkscape:current-layer="layer1" />
  <defs
     id="defs1435" />
  <g
     inkscape:label="Layer 1"
     inkscape:groupmode="layer"
     id="layer1">
    <g
       style="fill:#267778;fill-opacity:1"
       id="g9538"
       transform="matrix(-0.79693904,0,0,0.79693904,12.990092,0.47813683)">
      <path
         d="M 8,1 A 1,1 0 0 1 9,0 h 6 a 1,1 0 0 1 1,1 v 14 a 1,1 0 0 1 -1,1 H 9 A 1,1 0 0 1 8,15 Z m 1,13.5 a 0.5,0.5 0 1 0 1,0 0.5,0.5 0 0 0 -1,0 z m 2,0 a 0.5,0.5 0 1 0 1,0 0.5,0.5 0 0 0 -1,0 z M 9.5,1 a 0.5,0.5 0 0 0 0,1 h 5 a 0.5,0.5 0 0 0 0,-1 z M 9,3.5 A 0.5,0.5 0 0 0 9.5,4 h 5 a 0.5,0.5 0 0 0 0,-1 h -5 A 0.5,0.5 0 0 0 9,3.5 Z M 1.5,2 A 1.5,1.5 0 0 0 0,3.5 v 7 A 1.5,1.5 0 0 0 1.5,12 H 6 v 2 H 5.5 a 0.5,0.5 0 0 0 0,1 H 7 V 11 H 1.5 A 0.5,0.5 0 0 1 1,10.5 v -7 A 0.5,0.5 0 0 1 1.5,3 H 7 V 2 Z"
         id="path9536"
         style="fill:#267778;fill-opacity:1" />
    </g>
    <path
       d="M 6.6145797,0.79693542 A 0.79693904,0.79693904 0 0 0 5.8176406,-3.622008e-6 H 1.0360064 A 0.79693904,0.79693904 0 0 0 0.23906736,0.79693542 V 11.954082 A 0.79693904,0.79693904 0 0 0 1.0360064,12.751021 H 5.8176406 A 0.79693904,0.79693904 0 0 0 6.6145797,11.954082 Z M 5.8176406,11.555612 a 0.39846952,0.39846952 0 1 1 -0.796939,0 0.39846952,0.39846952 0 0 1 0.796939,0 z m -1.593878,0 a 0.39846955,0.39846955 0 1 1 -0.7969391,0 0.39846955,0.39846955 0 0 1 0.7969391,0 z M 5.4191711,0.79693542 a 0.39846954,0.39846954 0 0 1 0,0.79693908 H 1.4344759 a 0.39846954,0.39846954 0 0 1 0,-0.79693908 z M 5.8176406,2.789283 A 0.39846952,0.39846952 0 0 1 5.4191711,3.1877525 H 1.4344759 a 0.39846952,0.39846952 0 0 1 0,-0.796939 H 5.4191711 A 0.39846952,0.39846952 0 0 1 5.8176406,2.789283 Z M 11.794683,1.5938745 A 1.1954086,1.1954086 0 0 1 12.990092,2.789283 V 8.3678563 A 1.1954086,1.1954086 0 0 1 11.794683,9.5632649 H 8.2084578 v 1.5938781 h 0.3984695 a 0.39846952,0.39846952 0 0 1 0,0.796939 H 7.4115187 V 8.7663258 h 4.3831643 a 0.39846952,0.39846952 0 0 0 0.39847,-0.3984695 V 2.789283 A 0.39846952,0.39846952 0 0 0 11.794683,2.3908135 H 7.4115187 v -0.796939 z"
       id="path9540"
       style="fill:#ffffff;stroke-width:0.796939" />
  </g>
</svg>
