<?xml version="1.0" encoding="UTF-8" standalone="no"?>
<svg
   width="16"
   height="16"
   fill="currentColor"
   class="bi bi-star-fill"
   viewBox="0 0 16 16"
   version="1.1"
   id="svg777"
   sodipodi:docname="rating-empty.svg"
   inkscape:version="1.2 (dc2aedaf03, 2022-05-15)"
   xmlns:inkscape="http://www.inkscape.org/namespaces/inkscape"
   xmlns:sodipodi="http://sodipodi.sourceforge.net/DTD/sodipodi-0.dtd"
   xmlns="http://www.w3.org/2000/svg"
   xmlns:svg="http://www.w3.org/2000/svg">
  <defs
     id="defs781">
    <inkscape:path-effect
       effect="powerclip"
       id="path-effect41458"
       is_visible="true"
       lpeversion="1"
       inverse="true"
       flatten="false"
       hide_clip="false"
       message="Use fill-rule evenodd on &lt;b&gt;fill and stroke&lt;/b&gt; dialog if no flatten result after convert clip to paths." />
    <inkscape:path-effect
       effect="powerclip"
       id="path-effect38807"
       is_visible="true"
       lpeversion="1"
       inverse="true"
       flatten="false"
       hide_clip="false"
       message="Use fill-rule evenodd on &lt;b&gt;fill and stroke&lt;/b&gt; dialog if no flatten result after convert clip to paths." />
    <clipPath
       clipPathUnits="userSpaceOnUse"
       id="clipPath37549">
      <rect
         style="fill:#fda744;stroke-width:1.40407;stop-color:#000000"
         id="rect37551"
         width="10.061467"
         height="20.182505"
         x="8.0117035"
         y="-3.1160638" />
    </clipPath>
    <clipPath
       clipPathUnits="userSpaceOnUse"
       id="clipPath37553">
      <rect
         style="fill:#fda744;stroke-width:1.40407;stop-color:#000000"
         id="rect37555"
         width="10.061467"
         height="20.182505"
         x="8.0117035"
         y="-3.1160638" />
    </clipPath>
    <clipPath
       clipPathUnits="userSpaceOnUse"
       id="clipPath38803">
      <path
         d="M 4.6157967,13.555336 C 4.3180704,13.711893 3.9802358,13.437522 4.0403981,13.087244 L 4.6805869,9.3472535 1.9632555,6.6936795 C 1.7094939,6.4454012 1.8413882,5.9915422 2.1815368,5.9425192 L 5.9594219,5.3921952 7.6439668,1.9708566 c 0.1519485,-0.3083712 0.5630577,-0.3083712 0.7150061,0 l 1.6845451,3.4213386 3.777885,0.550324 c 0.340149,0.049023 0.472043,0.502882 0.21751,0.7511603 l -2.716561,2.653574 0.64019,3.7399905 c 0.06016,0.350278 -0.277673,0.624649 -0.575399,0.468092 L 8.0003129,11.771528 4.6150255,13.555336 Z"
         id="path38805"
         style="display:block;fill:#a25900;fill-opacity:1;stroke-width:0.780943"
         clip-path="none" />
    </clipPath>
    <clipPath
       clipPathUnits="userSpaceOnUse"
       id="clipPath41454">
      <path
         d="M 4.9442834,13.526996 C 4.6755645,13.674022 4.370645,13.416356 4.4249458,13.087406 L 5.0027611,9.5751375 2.5501784,7.0831357 C 2.3211408,6.8499746 2.4401843,6.42375 2.7471924,6.3777119 L 6.1569997,5.860896 7.67742,2.6478759 c 0.1371442,-0.289595 0.5081991,-0.289595 0.6453433,0 L 9.8431832,5.860896 13.252991,6.3777119 c 0.307008,0.046039 0.426051,0.4722627 0.196317,0.7054238 l -2.451886,2.4920018 0.577815,3.5122685 c 0.0543,0.32895 -0.250619,0.586616 -0.519338,0.43959 L 7.9990474,11.8518 4.9435873,13.526996 Z"
         id="path41456"
         style="display:block;fill:#ffffff;fill-opacity:1;stroke-width:0.718985" />
    </clipPath>
  </defs>
  <sodipodi:namedview
     id="namedview779"
     pagecolor="#505050"
     bordercolor="#eeeeee"
     borderopacity="1"
     inkscape:showpageshadow="0"
     inkscape:pageopacity="0"
     inkscape:pagecheckerboard="0"
     inkscape:deskcolor="#505050"
     showgrid="false"
     inkscape:zoom="16"
     inkscape:cx="-3.4375"
     inkscape:cy="6.4375001"
     inkscape:window-width="1920"
     inkscape:window-height="1017"
     inkscape:window-x="-8"
     inkscape:window-y="-8"
     inkscape:window-maximized="1"
     inkscape:current-layer="svg777" />
  <g
     style="fill:#8d3030;fill-opacity:1"
     id="g81327"
     transform="matrix(0.99999636,0,0,1.0203307,-0.00134656,0.1848751)">
    <path
       d="M 3.612,15.443 C 3.226,15.641 2.788,15.294 2.866,14.851 L 3.696,10.121 0.173,6.765 C -0.156,6.451 0.015,5.877 0.456,5.815 L 5.354,5.119 7.538,0.792 c 0.197,-0.39 0.73,-0.39 0.927,0 l 2.184,4.327 4.898,0.696 c 0.441,0.062 0.612,0.636 0.282,0.95 l -3.522,3.356 0.83,4.73 c 0.078,0.443 -0.36,0.79 -0.746,0.592 L 8,13.187 3.611,15.443 Z"
       id="path81325"
       style="fill:#8d3030;fill-opacity:1" />
  </g>
  <path
     d="m 3.6106414,15.247307 c -0.385999,0.20203 -0.823998,-0.152104 -0.745999,-0.60403 L 3.6946404,9.8171042 0.17165444,6.3928651 c -0.329,-0.3203748 -0.158005,-0.9060304 0.283009,-0.96931 L 5.3526444,4.7134013 7.5366374,0.2984301 c 0.197008,-0.3979068 0.729997,-0.3979068 0.926997,0 l 2.1839916,4.4149712 4.897982,0.7101538 c 0.440999,0.06328 0.611997,0.6489352 0.282013,0.96931 l -3.521987,3.4242391 0.829998,4.8261728 c 0.07801,0.451984 -0.360001,0.80606 -0.745997,0.60403 l -4.3909856,-2.301868 -4.388983,2.301868 z"
     id="path81329"
     style="fill:#b13d3d;fill-opacity:1;stroke-width:1.01012" />
</svg>
