<?xml version="1.0" encoding="UTF-8" standalone="no"?>
<svg
   width="16"
   height="16"
   fill="currentColor"
   class="bi bi-star-fill"
   viewBox="0 0 16 16"
   version="1.1"
   id="svg777"
   sodipodi:docname="rating-full.svg"
   inkscape:version="1.2 (dc2aedaf03, 2022-05-15)"
   xmlns:inkscape="http://www.inkscape.org/namespaces/inkscape"
   xmlns:sodipodi="http://sodipodi.sourceforge.net/DTD/sodipodi-0.dtd"
   xmlns="http://www.w3.org/2000/svg"
   xmlns:svg="http://www.w3.org/2000/svg">
  <defs
     id="defs781">
    <inkscape:path-effect
       effect="powerclip"
       id="path-effect38807"
       is_visible="true"
       lpeversion="1"
       inverse="true"
       flatten="false"
       hide_clip="false"
       message="Use fill-rule evenodd on &lt;b&gt;fill and stroke&lt;/b&gt; dialog if no flatten result after convert clip to paths." />
    <clipPath
       clipPathUnits="userSpaceOnUse"
       id="clipPath37549">
      <rect
         style="fill:#fda744;stroke-width:1.40407;stop-color:#000000"
         id="rect37551"
         width="10.061467"
         height="20.182505"
         x="8.0117035"
         y="-3.1160638" />
    </clipPath>
    <clipPath
       clipPathUnits="userSpaceOnUse"
       id="clipPath37553">
      <rect
         style="fill:#fda744;stroke-width:1.40407;stop-color:#000000"
         id="rect37555"
         width="10.061467"
         height="20.182505"
         x="8.0117035"
         y="-3.1160638" />
    </clipPath>
    <clipPath
       clipPathUnits="userSpaceOnUse"
       id="clipPath38803">
      <path
         d="M 4.6157967,13.555336 C 4.3180704,13.711893 3.9802358,13.437522 4.0403981,13.087244 L 4.6805869,9.3472535 1.9632555,6.6936795 C 1.7094939,6.4454012 1.8413882,5.9915422 2.1815368,5.9425192 L 5.9594219,5.3921952 7.6439668,1.9708566 c 0.1519485,-0.3083712 0.5630577,-0.3083712 0.7150061,0 l 1.6845451,3.4213386 3.777885,0.550324 c 0.340149,0.049023 0.472043,0.502882 0.21751,0.7511603 l -2.716561,2.653574 0.64019,3.7399905 c 0.06016,0.350278 -0.277673,0.624649 -0.575399,0.468092 L 8.0003129,11.771528 4.6150255,13.555336 Z"
         id="path38805"
         style="display:block;fill:#a25900;fill-opacity:1;stroke-width:0.780943"
         clip-path="none" />
    </clipPath>
  </defs>
  <sodipodi:namedview
     id="namedview779"
     pagecolor="#505050"
     bordercolor="#eeeeee"
     borderopacity="1"
     inkscape:showpageshadow="0"
     inkscape:pageopacity="0"
     inkscape:pagecheckerboard="0"
     inkscape:deskcolor="#505050"
     showgrid="false"
     inkscape:zoom="22.627417"
     inkscape:cx="7.9991455"
     inkscape:cy="12.506951"
     inkscape:window-width="1920"
     inkscape:window-height="1017"
     inkscape:window-x="-8"
     inkscape:window-y="-8"
     inkscape:window-maximized="1"
     inkscape:current-layer="svg777" />
  <g
     style="fill:#8d3030;fill-opacity:1"
     id="g71002"
     transform="matrix(0.9999973,0,0,1.0203303,-0.00134656,0.18488182)">
    <path
       d="M 3.612,15.443 C 3.226,15.641 2.788,15.294 2.866,14.851 L 3.696,10.121 0.173,6.765 C -0.156,6.451 0.015,5.877 0.456,5.815 L 5.354,5.119 7.538,0.792 c 0.197,-0.39 0.73,-0.39 0.927,0 l 2.184,4.327 4.898,0.696 c 0.441,0.062 0.612,0.636 0.282,0.95 l -3.522,3.356 0.83,4.73 c 0.078,0.443 -0.36,0.79 -0.746,0.592 L 8,13.187 3.611,15.443 Z"
       id="path71000"
       style="fill:#8d3030;fill-opacity:1" />
  </g>
  <g
     style="fill:#ffce35;fill-opacity:1"
     id="g71006"
     transform="matrix(0.9999973,0,0,1.0203303,-0.00134656,-0.50965498)">
    <path
       d="M 3.612,15.443 C 3.226,15.641 2.788,15.294 2.866,14.851 L 3.696,10.121 0.173,6.765 C -0.156,6.451 0.015,5.877 0.456,5.815 L 5.354,5.119 7.538,0.792 c 0.197,-0.39 0.73,-0.39 0.927,0 l 2.184,4.327 4.898,0.696 c 0.441,0.062 0.612,0.636 0.282,0.95 l -3.522,3.356 0.83,4.73 c 0.078,0.443 -0.36,0.79 -0.746,0.592 L 8,13.187 3.611,15.443 Z"
       id="path71004"
       style="fill:#ffce35;fill-opacity:1" />
  </g>
</svg>
