<?xml version="1.0" encoding="UTF-8" standalone="no"?>
<!-- Created with Inkscape (http://www.inkscape.org/) -->

<svg
   width="50"
   height="50"
   viewBox="0 0 13.229165 13.229165"
   version="1.1"
   id="svg1438"
   sodipodi:docname="release.svg"
   inkscape:version="1.2 (dc2aedaf03, 2022-05-15)"
   xmlns:inkscape="http://www.inkscape.org/namespaces/inkscape"
   xmlns:sodipodi="http://sodipodi.sourceforge.net/DTD/sodipodi-0.dtd"
   xmlns="http://www.w3.org/2000/svg"
   xmlns:svg="http://www.w3.org/2000/svg">
  <sodipodi:namedview
     id="namedview1440"
     pagecolor="#505050"
     bordercolor="#eeeeee"
     borderopacity="1"
     inkscape:showpageshadow="0"
     inkscape:pageopacity="0"
     inkscape:pagecheckerboard="0"
     inkscape:deskcolor="#505050"
     inkscape:document-units="px"
     showgrid="false"
     inkscape:zoom="9.44"
     inkscape:cx="12.129237"
     inkscape:cy="38.029661"
     inkscape:window-width="1920"
     inkscape:window-height="1017"
     inkscape:window-x="-8"
     inkscape:window-y="-8"
     inkscape:window-maximized="1"
     inkscape:current-layer="layer1" />
  <defs
     id="defs1435" />
  <g
     inkscape:label="Layer 1"
     inkscape:groupmode="layer"
     id="layer1">
    <g
       style="fill:#db3938;fill-opacity:1"
       id="g9475"
       transform="matrix(0.79413705,0,0,0.79413705,0.26148782,0.52296831)">
      <path
         d="m 4,0.5 a 0.5,0.5 0 0 0 -1,0 V 1 H 2 A 2,2 0 0 0 0,3 V 4 H 16 V 3 A 2,2 0 0 0 14,1 H 13 V 0.5 a 0.5,0.5 0 0 0 -1,0 V 1 H 4 Z M 16,14 V 5 H 0 v 9 a 2,2 0 0 0 2,2 h 12 a 2,2 0 0 0 2,-2 z M 8,7.993 C 9.664,6.282 13.825,9.276 8,13.125 2.175,9.275 6.336,6.282 8,7.993 Z"
         id="path9473"
         style="fill:#db3938;fill-opacity:1" />
    </g>
    <g
       style="fill:#ffffff"
       id="g9479"
       transform="matrix(0.79413705,0,0,0.79413705,0.26148782,-3.969309e-6)">
      <path
         d="m 4,0.5 a 0.5,0.5 0 0 0 -1,0 V 1 H 2 A 2,2 0 0 0 0,3 V 4 H 16 V 3 A 2,2 0 0 0 14,1 H 13 V 0.5 a 0.5,0.5 0 0 0 -1,0 V 1 H 4 Z M 16,14 V 5 H 0 v 9 a 2,2 0 0 0 2,2 h 12 a 2,2 0 0 0 2,-2 z M 8,7.993 C 9.664,6.282 13.825,9.276 8,13.125 2.175,9.275 6.336,6.282 8,7.993 Z"
         id="path9477"
         style="fill:#ffffff" />
    </g>
  </g>
</svg>
